#N canvas 356 25 1084 768 12;
#X obj 239 439 s chord_note;
#X msg 170 351 60;
#X msg 229 349 62;
#X msg 285 350 64;
#X msg 347 354 65;
#X msg 404 354 67;
#X msg 459 354 69;
#X msg 524 357 71;
#X obj 704 664 dac~;
#X floatatom 542 164 5 0 0 0 - - - 0;
#X obj 631 49 r chord_note;
#X obj 657 196 int 0;
#X obj 737 197 + 1;
#X obj 796 200 % 4;
#X floatatom 553 266 5 0 0 0 - - - 0;
#X obj 666 115 t b i;
#X obj 666 304 select 0 1 2 3;
#N canvas 817 286 450 300 soundsource 0;
#X obj 87 63 inlet;
#X obj 101 219 outlet~;
#X obj 216 387 osc~;
#X obj 216 355 mtof;
#X obj 226 397 osc~;
#X obj 226 365 mtof;
#X obj 236 407 osc~;
#X obj 236 375 mtof;
#X obj 104 122 mtof;
#X obj 96 159 osc~;
#X connect 0 0 8 0;
#X connect 3 0 2 0;
#X connect 5 0 4 0;
#X connect 7 0 6 0;
#X connect 8 0 9 0;
#X connect 9 0 1 0;
#X restore 621 525 pd soundsource;
#N canvas 817 286 450 300 soundsource 0;
#X obj 87 63 inlet;
#X obj 101 219 outlet~;
#X obj 216 387 osc~;
#X obj 216 355 mtof;
#X obj 226 397 osc~;
#X obj 226 365 mtof;
#X obj 236 407 osc~;
#X obj 236 375 mtof;
#X obj 104 122 mtof;
#X obj 96 159 osc~;
#X connect 0 0 8 0;
#X connect 3 0 2 0;
#X connect 5 0 4 0;
#X connect 7 0 6 0;
#X connect 8 0 9 0;
#X connect 9 0 1 0;
#X restore 758 525 pd soundsource;
#N canvas 817 286 450 300 soundsource 0;
#X obj 87 63 inlet;
#X obj 101 219 outlet~;
#X obj 216 387 osc~;
#X obj 216 355 mtof;
#X obj 226 397 osc~;
#X obj 226 365 mtof;
#X obj 236 407 osc~;
#X obj 236 375 mtof;
#X obj 104 122 mtof;
#X obj 96 159 osc~;
#X connect 0 0 8 0;
#X connect 3 0 2 0;
#X connect 5 0 4 0;
#X connect 7 0 6 0;
#X connect 8 0 9 0;
#X connect 9 0 1 0;
#X restore 659 569 pd soundsource;
#N canvas 817 286 450 300 soundsource 0;
#X obj 87 63 inlet;
#X obj 101 219 outlet~;
#X obj 216 387 osc~;
#X obj 216 355 mtof;
#X obj 226 397 osc~;
#X obj 226 365 mtof;
#X obj 236 407 osc~;
#X obj 236 375 mtof;
#X obj 104 122 mtof;
#X obj 96 159 osc~;
#X connect 0 0 8 0;
#X connect 3 0 2 0;
#X connect 5 0 4 0;
#X connect 7 0 6 0;
#X connect 8 0 9 0;
#X connect 9 0 1 0;
#X restore 798 573 pd soundsource;
#X obj 606 444 int 0;
#X obj 667 445 int 0;
#X obj 738 443 int 0;
#X obj 799 444 int 0;
#X floatatom 863 330 5 0 0 0 - - - 0;
#X connect 1 0 0 0;
#X connect 2 0 0 0;
#X connect 3 0 0 0;
#X connect 4 0 0 0;
#X connect 5 0 0 0;
#X connect 6 0 0 0;
#X connect 7 0 0 0;
#X connect 10 0 9 0;
#X connect 10 0 15 0;
#X connect 10 0 25 0;
#X connect 11 0 12 0;
#X connect 12 0 13 0;
#X connect 13 0 14 0;
#X connect 13 0 16 0;
#X connect 13 0 11 1;
#X connect 15 0 11 0;
#X connect 16 0 21 0;
#X connect 16 1 22 0;
#X connect 16 2 23 0;
#X connect 16 3 24 0;
#X connect 17 0 8 0;
#X connect 17 0 8 1;
#X connect 18 0 8 0;
#X connect 18 0 8 1;
#X connect 19 0 8 0;
#X connect 19 0 8 1;
#X connect 20 0 8 0;
#X connect 20 0 8 1;
#X connect 21 0 17 0;
#X connect 22 0 19 0;
#X connect 23 0 18 0;
#X connect 24 0 20 0;
#X connect 25 0 24 1;
#X connect 25 0 23 1;
#X connect 25 0 22 1;
#X connect 25 0 21 1;
