#N canvas 303 25 1131 765 12;
#X obj 239 439 s chord_note;
#X msg 170 351 60;
#X msg 229 349 62;
#X msg 285 350 64;
#X msg 347 354 65;
#X msg 404 354 67;
#X msg 459 354 69;
#X msg 524 357 71;
#X floatatom 542 164 5 0 0 0 - - - 0;
#X obj 631 49 r chord_note;
#X obj 657 196 int 0;
#X obj 737 197 + 1;
#X floatatom 553 266 5 0 0 0 - - - 0;
#N canvas 180 108 737 601 soundsource 0;
#X obj 146 68 inlet;
#X obj 151 100 mtof;
#X obj 151 429 outlet~;
#X obj 153 337 osc~;
#X connect 0 0 1 0;
#X connect 1 0 3 0;
#X connect 3 0 2 0;
#X restore 621 525 pd soundsource;
#N canvas 753 252 450 396 soundsource 1;
#X obj 146 68 inlet;
#X obj 151 100 mtof;
#X obj 151 429 outlet~;
#X obj 153 337 osc~;
#X connect 0 0 1 0;
#X connect 1 0 3 0;
#X connect 3 0 2 0;
#X restore 758 525 pd soundsource;
#X obj 606 444 int 0;
#X obj 670 437 int 0;
#X floatatom 863 330 5 0 0 0 - - - 0;
#X obj 646 140 bng 15 250 50 0 empty empty empty 17 7 0 10 #fcfcfc
#000000 #000000;
#X obj 664 727 dac~;
#X msg 247 563 bang;
#X obj 249 617 s reset_chord;
#X obj 796 200 % 2;
#X obj 666 304 select 0 1;
#X obj 651 656 +~;
#X connect 1 0 0 0;
#X connect 2 0 0 0;
#X connect 3 0 0 0;
#X connect 4 0 0 0;
#X connect 5 0 0 0;
#X connect 6 0 0 0;
#X connect 7 0 0 0;
#X connect 9 0 8 0;
#X connect 9 0 17 0;
#X connect 9 0 18 0;
#X connect 10 0 11 0;
#X connect 11 0 22 0;
#X connect 13 0 24 0;
#X connect 14 0 24 1;
#X connect 15 0 13 0;
#X connect 16 0 14 0;
#X connect 17 0 16 1;
#X connect 17 0 15 1;
#X connect 18 0 10 0;
#X connect 20 0 21 0;
#X connect 22 0 12 0;
#X connect 22 0 10 1;
#X connect 22 0 23 0;
#X connect 23 0 15 0;
#X connect 23 1 16 0;
#X connect 24 0 19 0;
#X connect 24 0 19 1;
