#N canvas 303 25 1131 776 12;
#X obj 239 439 s chord_note;
#X msg 170 351 60;
#X msg 229 349 62;
#X msg 285 350 64;
#X msg 347 354 65;
#X msg 404 354 67;
#X msg 459 354 69;
#X msg 524 357 71;
#X floatatom 542 164 5 0 0 0 - - - 0;
#X obj 631 49 r chord_note;
#X obj 657 196 int 0;
#X obj 737 197 + 1;
#X obj 796 200 % 4;
#X floatatom 553 266 5 0 0 0 - - - 0;
#X obj 666 304 select 0 1 2 3;
#N canvas 304 309 450 400 soundsource 0;
#X obj 135 26 inlet;
#X obj 180 328 outlet~;
#X obj 140 58 mtof;
#X floatatom 127 145 5 0 0 0 - - - 0;
#X obj 127 177 sig~;
#X obj 226 187 *~ 3;
#X obj 132 249 phasor~;
#X obj 124 215 +~;
#X obj 145 102 t f b;
#X msg 195 213 1;
#X obj 177 288 *~ 0;
#X floatatom 209 246 5 0 0 0 - - - 0;
#X connect 0 0 2 0;
#X connect 2 0 8 0;
#X connect 3 0 4 0;
#X connect 4 0 7 0;
#X connect 5 0 7 1;
#X connect 6 0 10 0;
#X connect 7 0 6 0;
#X connect 8 0 3 0;
#X connect 8 1 9 0;
#X connect 9 0 11 0;
#X connect 10 0 1 0;
#X connect 11 0 10 1;
#X restore 621 525 pd soundsource;
#N canvas 753 252 450 396 soundsource 0;
#X obj 135 26 inlet;
#X obj 180 328 outlet~;
#X obj 140 58 mtof;
#X floatatom 127 145 5 0 0 0 - - - 0;
#X obj 127 177 sig~;
#X obj 226 187 *~ 3;
#X obj 132 249 phasor~;
#X obj 124 215 +~;
#X obj 145 102 t f b;
#X msg 195 213 1;
#X obj 177 288 *~ 0;
#X floatatom 209 246 5 0 0 0 - - - 0;
#X connect 0 0 2 0;
#X connect 2 0 8 0;
#X connect 3 0 4 0;
#X connect 4 0 7 0;
#X connect 5 0 7 1;
#X connect 6 0 10 0;
#X connect 7 0 6 0;
#X connect 8 0 3 0;
#X connect 8 1 9 0;
#X connect 9 0 11 0;
#X connect 10 0 1 0;
#X connect 11 0 10 1;
#X restore 758 525 pd soundsource;
#N canvas 817 286 450 300 soundsource 0;
#X obj 135 26 inlet;
#X obj 180 328 outlet~;
#X obj 140 58 mtof;
#X floatatom 127 145 5 0 0 0 - - - 0;
#X obj 127 177 sig~;
#X obj 226 187 *~ 3;
#X obj 132 249 phasor~;
#X obj 124 215 +~;
#X obj 145 102 t f b;
#X msg 195 213 1;
#X obj 177 288 *~ 0;
#X floatatom 209 246 5 0 0 0 - - - 0;
#X connect 0 0 2 0;
#X connect 2 0 8 0;
#X connect 3 0 4 0;
#X connect 4 0 7 0;
#X connect 5 0 7 1;
#X connect 6 0 10 0;
#X connect 7 0 6 0;
#X connect 8 0 3 0;
#X connect 8 1 9 0;
#X connect 9 0 11 0;
#X connect 10 0 1 0;
#X connect 11 0 10 1;
#X restore 659 569 pd soundsource;
#N canvas 817 286 450 300 soundsource 0;
#X obj 135 26 inlet;
#X obj 180 328 outlet~;
#X obj 140 58 mtof;
#X floatatom 127 145 5 0 0 0 - - - 0;
#X obj 127 177 sig~;
#X obj 226 187 *~ 3;
#X obj 132 249 phasor~;
#X obj 124 215 +~;
#X obj 145 102 t f b;
#X msg 195 213 1;
#X obj 177 288 *~ 0;
#X floatatom 209 246 5 0 0 0 - - - 0;
#X connect 0 0 2 0;
#X connect 2 0 8 0;
#X connect 3 0 4 0;
#X connect 4 0 7 0;
#X connect 5 0 7 1;
#X connect 6 0 10 0;
#X connect 7 0 6 0;
#X connect 8 0 3 0;
#X connect 8 1 9 0;
#X connect 9 0 11 0;
#X connect 10 0 1 0;
#X connect 11 0 10 1;
#X restore 798 573 pd soundsource;
#X obj 606 444 int 0;
#X obj 670 437 int 0;
#X obj 739 443 int 0;
#X obj 799 444 int 0;
#X floatatom 863 330 5 0 0 0 - - - 0;
#X obj 646 140 bng 15 250 50 0 empty empty empty 17 7 0 10 #fcfcfc
#000000 #000000;
#X obj 664 727 dac~;
#X msg 247 563 bang;
#X obj 249 617 s reset_chord;
#X obj 409 451 r reset_chord;
#X msg 409 475 0;
#X obj 651 656 +~;
#X connect 1 0 0 0;
#X connect 2 0 0 0;
#X connect 3 0 0 0;
#X connect 4 0 0 0;
#X connect 5 0 0 0;
#X connect 6 0 0 0;
#X connect 7 0 0 0;
#X connect 9 0 8 0;
#X connect 9 0 23 0;
#X connect 9 0 24 0;
#X connect 10 0 11 0;
#X connect 11 0 12 0;
#X connect 12 0 13 0;
#X connect 12 0 14 0;
#X connect 12 0 10 1;
#X connect 14 0 19 0;
#X connect 14 1 20 0;
#X connect 14 2 21 0;
#X connect 14 3 22 0;
#X connect 15 0 30 0;
#X connect 16 0 30 0;
#X connect 17 0 30 0;
#X connect 18 0 30 0;
#X connect 19 0 15 0;
#X connect 20 0 16 0;
#X connect 21 0 17 0;
#X connect 22 0 18 0;
#X connect 23 0 22 1;
#X connect 23 0 21 1;
#X connect 23 0 20 1;
#X connect 23 0 19 1;
#X connect 24 0 10 0;
#X connect 26 0 27 0;
#X connect 28 0 29 0;
#X connect 29 0 19 0;
#X connect 29 0 20 0;
#X connect 29 0 21 0;
#X connect 29 0 22 0;
#X connect 30 0 25 0;
#X connect 30 0 25 1;
