#N canvas 57 25 971 776 12;
#X obj 460 736 dac~;
#X obj 463 335 r note;
#X floatatom 464 368 5 0 0 0 - - - 0;
#X obj 175 74 r timbre;
#X floatatom 178 103 5 0 0 0 - - - 0;
#X msg 22 243 1, f 2;
#X msg 49 243 0, f 2;
#X msg 146 241 0, f 2;
#X msg 171 241 1, f 2;
#X obj 702 102 s note;
#X obj 798 104 s timbre;
#X obj 472 683 *~ 1;
#X obj 361 582 *~ 1;
#X floatatom 72 337 5 0 0 0 - - - 0;
#X floatatom 131 338 5 0 0 0 - - - 0;
#X msg 74 242 0, f 2;
#X floatatom 192 336 5 0 0 0 - - - 0;
#X msg 195 241 0, f 2;
#X msg 262 241 0, f 2;
#X msg 290 240 0, f 2;
#X msg 314 240 1, f 2;
#X msg 101 241 0, f 2;
#X floatatom 257 337 5 0 0 0 - - - 0;
#X msg 220 241 0, f 2;
#X msg 341 240 0, f 2;
#X msg 381 239 0, f 2;
#X msg 406 240 0, f 2;
#X msg 430 240 0, f 2;
#X msg 457 240 1, f 2;
#X obj 170 135 select 0 1 2;
#X obj 436 584 *~ 1;
#X obj 517 585 *~ 1;
#X obj 604 585 *~ 1;
#X obj 442 626 *~ 10;
#X obj 595 628 *~ 15;
#X obj 378 626 *~ 1.5;
#N canvas 354 63 949 595 piano 0;
#X obj 146 68 inlet;
#X obj 151 100 mtof;
#X obj 151 429 outlet~;
#X floatatom 104 210 5 0 0 0 - - - 0;
#X obj 111 238 osc~;
#X obj 152 254 *~ 110;
#X floatatom 219 271 5 0 0 0 - - - 0;
#X obj 153 337 osc~;
#X obj 159 378 *~;
#X obj 150 296 +~;
#X obj 315 63 bng 15 250 50 0 empty empty empty 17 7 0 10 #fcfcfc #000000
#000000;
#X obj 361 332 line~;
#X msg 395 197 0 \, 1 \$1;
#X obj 378 166 int;
#X floatatom 435 120 5 0 0 0 - - - 0;
#X obj 446 158 delay;
#X obj 466 190 int;
#X floatatom 504 150 5 0 0 0 - - - 0;
#X obj 474 231 pack 0 0;
#X floatatom 530 205 5 0 0 0 - - - 0;
#X msg 419 261 \$2 \$1;
#X obj 621 108 bng 15 250 50 0 empty empty empty 17 7 0 10 #fcfcfc
#000000 #000000;
#X obj 633 178 int;
#X floatatom 678 150 5 0 0 0 - - - 0;
#X msg 567 269 0 \$1;
#X obj 154 149 t b f f;
#X obj 171 184 / 2;
#X obj 437 71 delay 500;
#X floatatom 496 114 5 0 0 0 - - - 0;
#X msg 528 90 50;
#X obj 533 65 loadbang;
#X floatatom 563 115 5 0 0 0 - - - 0;
#X msg 595 91 50;
#X obj 600 66 loadbang;
#X floatatom 564 177 5 0 0 0 - - - 0;
#X obj 601 128 loadbang;
#X msg 596 153 0.3;
#X floatatom 702 112 5 0 0 0 - - - 0;
#X obj 739 63 loadbang;
#X msg 734 88 300;
#X connect 0 0 1 0;
#X connect 1 0 25 0;
#X connect 3 0 4 0;
#X connect 4 0 5 0;
#X connect 5 0 9 0;
#X connect 6 0 9 1;
#X connect 7 0 8 0;
#X connect 8 0 2 0;
#X connect 9 0 7 0;
#X connect 10 0 13 0;
#X connect 10 0 15 0;
#X connect 10 0 27 0;
#X connect 11 0 8 1;
#X connect 12 0 11 0;
#X connect 13 0 12 0;
#X connect 14 0 13 1;
#X connect 14 0 15 1;
#X connect 15 0 16 0;
#X connect 16 0 18 0;
#X connect 17 0 16 1;
#X connect 18 0 20 0;
#X connect 19 0 18 1;
#X connect 20 0 11 0;
#X connect 21 0 22 0;
#X connect 22 0 24 0;
#X connect 23 0 22 1;
#X connect 24 0 11 0;
#X connect 25 0 10 0;
#X connect 25 1 26 0;
#X connect 25 2 6 0;
#X connect 26 0 3 0;
#X connect 27 0 21 0;
#X connect 28 0 14 0;
#X connect 29 0 28 0;
#X connect 30 0 29 0;
#X connect 31 0 17 0;
#X connect 32 0 31 0;
#X connect 33 0 32 0;
#X connect 34 0 19 0;
#X connect 35 0 36 0;
#X connect 36 0 34 0;
#X connect 37 0 23 0;
#X connect 38 0 39 0;
#X connect 39 0 37 0;
#X restore 441 446 pd piano;
#N canvas 71 107 450 386 electronic 0;
#X obj 135 26 inlet;
#X obj 180 328 outlet~;
#X obj 140 58 mtof;
#X floatatom 127 145 5 0 0 0 - - - 0;
#X obj 127 177 sig~;
#X obj 226 187 *~ 3;
#X obj 276 157 osc~ 5;
#X obj 132 249 phasor~;
#X obj 124 215 +~;
#X obj 145 102 t f b;
#X msg 195 213 1;
#X msg 227 216 0;
#X obj 177 288 *~ 0;
#X obj 193 135 delay 250;
#X floatatom 209 246 5 0 0 0 - - - 0;
#X obj 248 36 loadbang;
#X floatatom 238 96 5 0 0 0 - - - 0;
#X msg 242 70 250;
#X connect 0 0 2 0;
#X connect 2 0 9 0;
#X connect 3 0 4 0;
#X connect 4 0 8 0;
#X connect 5 0 8 1;
#X connect 6 0 5 0;
#X connect 7 0 12 0;
#X connect 8 0 7 0;
#X connect 9 0 3 0;
#X connect 9 1 10 0;
#X connect 9 1 13 0;
#X connect 10 0 14 0;
#X connect 11 0 14 0;
#X connect 12 0 1 0;
#X connect 13 0 11 0;
#X connect 14 0 12 1;
#X connect 15 0 17 0;
#X connect 16 0 13 1;
#X connect 17 0 16 0;
#X restore 326 445 pd electronic;
#N canvas 308 242 778 486 electronic_drum 1;
#X obj 172 131 mtof;
#X obj 164 69 inlet;
#X obj 223 186 bng 15 250 50 0 empty empty empty 17 7 0 10 #fcfcfc
#000000 #000000;
#X obj 169 407 *~;
#X msg 208 219 1 5;
#X obj 247 218 del 10;
#X obj 242 284 line~;
#X obj 243 315 *~;
#X obj 234 343 *~;
#X obj 167 444 outlet~;
#X obj 246 257 pack 0 500;
#X obj 218 375 *~;
#X obj 143 172 osc~ 40;
#X connect 0 0 2 0;
#X connect 0 0 12 0;
#X connect 1 0 0 0;
#X connect 2 0 4 0;
#X connect 2 0 5 0;
#X connect 3 0 9 0;
#X connect 4 0 6 0;
#X connect 5 0 10 0;
#X connect 6 0 7 0;
#X connect 6 0 7 1;
#X connect 7 0 8 0;
#X connect 7 0 8 1;
#X connect 8 0 11 0;
#X connect 8 0 11 1;
#X connect 10 0 6 0;
#X connect 11 0 3 1;
#X connect 12 0 3 0;
#X restore 640 447 pd electronic_drum;
#X msg 706 64 65;
#N canvas 535 148 828 490 swarmatron 1;
#X obj 96 76 inlet;
#X obj 101 108 mtof;
#X obj 152 455 outlet~;
#X obj 315 63 bng 15 250 50 0 empty empty empty 17 7 0 10 #fcfcfc #000000
#000000;
#X obj 361 332 line~;
#X msg 395 197 0 \, 1 \$1;
#X obj 378 166 int;
#X floatatom 435 120 5 0 0 0 - - - 0;
#X obj 446 158 delay;
#X obj 466 190 int;
#X floatatom 504 150 5 0 0 0 - - - 0;
#X obj 474 231 pack 0 0;
#X floatatom 530 205 5 0 0 0 - - - 0;
#X msg 419 261 \$2 \$1;
#X obj 621 108 bng 15 250 50 0 empty empty empty 17 7 0 10 #fcfcfc
#000000 #000000;
#X obj 633 178 int;
#X floatatom 678 150 5 0 0 0 - - - 0;
#X msg 567 269 0 \$1;
#X obj 437 71 delay 500;
#X floatatom 496 114 5 0 0 0 - - - 0;
#X obj 533 65 loadbang;
#X floatatom 563 115 5 0 0 0 - - - 0;
#X msg 595 91 50;
#X obj 600 66 loadbang;
#X floatatom 564 177 5 0 0 0 - - - 0;
#X obj 601 128 loadbang;
#X floatatom 702 112 5 0 0 0 - - - 0;
#X obj 739 63 loadbang;
#X msg 734 88 300;
#X obj 92 159 t b f;
#X obj 75 218 phasor~;
#X obj 79 258 *~ 0.4;
#X obj 110 362 vcf~ 880 5;
#X obj 168 211 * 1.01;
#X floatatom 171 238 5 0 0 0 - - - 0;
#X obj 171 265 phasor~;
#X obj 169 294 *~ 0.4;
#X obj 239 256 loadbang;
#X msg 238 287 500;
#X floatatom 236 317 5 0 0 0 - - - 0;
#X obj 305 257 loadbang;
#X floatatom 302 318 5 0 0 0 - - - 0;
#X msg 304 288 10;
#X obj 152 414 *~;
#X msg 528 90 50;
#X msg 596 153 0.3;
#X connect 0 0 1 0;
#X connect 1 0 29 0;
#X connect 3 0 6 0;
#X connect 3 0 8 0;
#X connect 3 0 18 0;
#X connect 4 0 43 1;
#X connect 5 0 4 0;
#X connect 6 0 5 0;
#X connect 7 0 6 1;
#X connect 7 0 8 1;
#X connect 8 0 9 0;
#X connect 9 0 11 0;
#X connect 10 0 9 1;
#X connect 11 0 13 0;
#X connect 12 0 11 1;
#X connect 13 0 4 0;
#X connect 14 0 15 0;
#X connect 15 0 17 0;
#X connect 16 0 15 1;
#X connect 17 0 4 0;
#X connect 18 0 14 0;
#X connect 19 0 7 0;
#X connect 20 0 44 0;
#X connect 21 0 10 0;
#X connect 22 0 21 0;
#X connect 23 0 22 0;
#X connect 24 0 12 0;
#X connect 25 0 45 0;
#X connect 26 0 16 0;
#X connect 27 0 28 0;
#X connect 28 0 26 0;
#X connect 29 0 3 0;
#X connect 29 1 30 0;
#X connect 29 1 33 0;
#X connect 30 0 31 0;
#X connect 31 0 32 0;
#X connect 32 0 43 0;
#X connect 33 0 34 0;
#X connect 34 0 35 0;
#X connect 35 0 36 0;
#X connect 36 0 32 0;
#X connect 37 0 38 0;
#X connect 38 0 39 0;
#X connect 39 0 32 1;
#X connect 40 0 42 0;
#X connect 41 0 32 2;
#X connect 42 0 41 0;
#X connect 43 0 2 0;
#X connect 44 0 19 0;
#X connect 45 0 24 0;
#X restore 522 446 pd swarmatron;
#X obj 515 628 *~ 2500;
#X msg 802 59 2;
#X connect 1 0 2 0;
#X connect 2 0 37 0;
#X connect 2 0 36 0;
#X connect 2 0 40 0;
#X connect 2 0 38 0;
#X connect 3 0 4 0;
#X connect 4 0 29 0;
#X connect 5 0 13 0;
#X connect 6 0 14 0;
#X connect 7 0 13 0;
#X connect 8 0 14 0;
#X connect 11 0 0 0;
#X connect 11 0 0 1;
#X connect 12 0 35 0;
#X connect 13 0 12 1;
#X connect 14 0 30 1;
#X connect 15 0 16 0;
#X connect 16 0 31 1;
#X connect 17 0 16 0;
#X connect 18 0 13 0;
#X connect 19 0 14 0;
#X connect 20 0 16 0;
#X connect 21 0 22 0;
#X connect 22 0 32 1;
#X connect 23 0 22 0;
#X connect 24 0 22 0;
#X connect 25 0 13 0;
#X connect 26 0 14 0;
#X connect 27 0 16 0;
#X connect 28 0 22 0;
#X connect 29 0 5 0;
#X connect 29 0 6 0;
#X connect 29 0 15 0;
#X connect 29 0 21 0;
#X connect 29 1 7 0;
#X connect 29 1 8 0;
#X connect 29 1 17 0;
#X connect 29 1 23 0;
#X connect 29 2 18 0;
#X connect 29 2 19 0;
#X connect 29 2 20 0;
#X connect 29 2 24 0;
#X connect 29 3 25 0;
#X connect 29 3 26 0;
#X connect 29 3 27 0;
#X connect 29 3 28 0;
#X connect 30 0 33 0;
#X connect 31 0 41 0;
#X connect 32 0 34 0;
#X connect 33 0 11 0;
#X connect 34 0 11 0;
#X connect 35 0 11 0;
#X connect 36 0 30 0;
#X connect 37 0 12 0;
#X connect 38 0 32 0;
#X connect 39 0 9 0;
#X connect 40 0 31 0;
#X connect 41 0 11 0;
#X connect 42 0 10 0;
